/* XPM */
static char *redbrick1701186336[] = {
/* columns rows colors chars-per-pixel */
"32 32 24 1 ",
"  c #2C2C2C",
". c #202020",
"X c #484848",
"o c gray33",
"O c gray22",
"+ c gray36",
"@ c #646464",
"# c #EC0000",
"$ c #D40000",
"% c #C80000",
"& c #BC0000",
"* c #700000",
"= c #B00000",
"- c #7C0000",
"; c #640000",
": c #880000",
"> c #980000",
", c #A40000",
"< c #580000",
"1 c #4C0000",
"2 c #343434",
"3 c gray25",
"4 c #400000",
"5 c white",
/* pixels */
"    .....  ....     XoO         ",
"XXXXXOOOoXXXOOXXXXXXoOXoooo+@@+o",
"X##$$$$$$%%%%%%%&&&&&&&&&&&&&&&&",
"o#*=%-&;:&::%>,:-:,:,:,-%;%:>&%>",
"X$=*,-,,:,;,*;:,-,-,;,,:;,:,*:,*",
"X$*,:>::;::*,:;,:-;-::,<:-,*,*,,",
"X$*,,-,;:,;*,;:,-:-,;,:<,;,*:*,*",
"o$=<,-,:;:<:*;,:-<-,;:<:,;:,*:,*",
"o=,*:<*>*:;*:<*>*>;:*::<>**:1*>*",
"o,;;;;;;;;;;;;;<<<<<<<<<<<<<<<<<",
"OXO2      22OO2   .....   ....  ",
"oXXX3O3O3O3XXXoOoX3OOO33XXo3OO3X",
"&&&&&&&&&,Xoo##$$$$$$$$$$&&&&&&&",
":=:&=;=%*4OXo#&*$,=:,=:=>=-;,:*:",
",*,:;:,*=4 X+$&>,;,;:*>:;,;:,;,*",
",*:,:;-,*4 o@$&-,-,;,*>,-,-,:;,*",
"-,;,:;,*<4 o+$*,*>:;:>*,;:;:,-:*",
",:;,;:--=4 Xo$%*,*,:,:*,;,<**1,1",
"**;*>*>**4 Oo%,*>*:<****;:*:1,<*",
"1111111144 Oo,;;;;;;;;;;;;;;<<<<",
"  OOO      XXX        ..... OOO ",
"oXXX33OO3OO3oXXXoOoXoX3O3O3XooXX",
"$$$$&&&&&&&&&&&&&&&&&,Xoo%#$$$$$",
"*,,;,:,,*,:;,,;,,*,-,4OXo$,-,*,,",
":,-,>*,::*::,:;,*:,;,4Ooo$,<,*,:",
"->,*,*,:,<,1::,:*>,-,4Oo@$,-,*,:",
"-,-<>:::*:,;,:;:>*:,-4Oo@$-,,*,;",
"<>,*::,:,*:1;>;,>*,-,4OXo%,-,,*,",
"<,-*,*,;,<:;,:;>*>,;-4 Xo%,<,*,,",
";;;;;;<<<<<<<<<<<<<<44 XX,;;;;;;",
"..  OOO .....         OXXX    OO",
"XXXXXooXXOOOoXXXoOXOXOXXoXoOoXo+"
};
