/* XPM */
static char *_ace9f31469b4458b193428aa3e366d6[] = {
/* columns rows colors chars-per-pixel */
"32 32 117 2 ",
"   c #791011",
".  c #6F231D",
"X  c #721D22",
"o  c #672223",
"O  c #702020",
"+  c #8C0E0B",
"@  c #9E0B06",
"#  c #930D0D",
"$  c #9F0E0B",
"%  c #82160F",
"&  c #8C170F",
"*  c #95120D",
"=  c #99140F",
"-  c #960F14",
";  c #990E16",
":  c #940F18",
">  c #851313",
",  c #891615",
"<  c #861915",
"1  c #851718",
"2  c #89161B",
"3  c #861B1E",
"4  c #8B1A1B",
"5  c #931313",
"6  c #981211",
"7  c #901A16",
"8  c #95131A",
"9  c #921919",
"0  c #AD0605",
"q  c #A30C06",
"w  c #AD0905",
"e  c #A40C0C",
"r  c #AC090A",
"t  c #B20506",
"y  c #BE0102",
"u  c #B00905",
"i  c #B2050B",
"p  c #BE0109",
"a  c #B10909",
"s  c #A30D11",
"d  c #A71718",
"f  c #C10002",
"g  c #C20209",
"h  c #AC6868",
"j  c #BA6467",
"k  c #B66C65",
"l  c #BA6C66",
"z  c #BB656B",
"x  c #B16B6E",
"c  c #BB6A6A",
"v  c #BE6C71",
"b  c #CC5D57",
"n  c #CB5B5A",
"m  c #CC5B5A",
"M  c #C95D5F",
"N  c #CE5F5C",
"B  c #CC5E5F",
"V  c #CC5D5C",
"C  c #D65752",
"Z  c #D65754",
"A  c #D65752",
"S  c #D95757",
"D  c #D95757",
"F  c #D75853",
"G  c #D65953",
"H  c #D75B53",
"J  c #D75A57",
"K  c #D75857",
"L  c #DA5953",
"P  c #DE5952",
"I  c #DE5B53",
"U  c #DB5855",
"Y  c #D85A55",
"T  c #DB5A54",
"R  c #D85957",
"E  c #DE5954",
"W  c #DD5A54",
"Q  c #DE5856",
"!  c #D85C56",
"~  c #DE5A56",
"^  c #D95659",
"/  c #D9565B",
"(  c #DF555B",
")  c #DD565B",
"_  c #DB565D",
"`  c #DB565F",
"'  c #DA575F",
"]  c #DF555D",
"[  c #DD565D",
"{  c #DD555F",
"}  c #DE565A",
"|  c #D75F5C",
" . c #D35F5B",
".. c #DB5A58",
"X. c #DB5B5B",
"o. c #DE585A",
"O. c #DD5C58",
"+. c #DB595C",
"@. c #D95A5C",
"#. c #DB585E",
"$. c #DD5D5D",
"%. c #D8595A",
"&. c #E0545D",
"*. c #CD6158",
"=. c #CB615C",
"-. c #D46158",
";. c #D7615B",
":. c #D9615E",
">. c #D05B61",
",. c #D05B63",
"<. c #D15C62",
"1. c #D65C61",
"2. c #D75E62",
"3. c #DF5A61",
"4. c #CE6065",
"5. c #D36163",
"6. c #D16668",
/* pixels */
"y y y y y y y a #.8 i g y y g g f f f t 5 C i g f f f f f f f f ",
"y y y y y y y u #.8 i g y y g g f f f t 5 C i g f f f f f f f f ",
"y y y y y y y a #.8 i g y y g g y f f t 5 C i g f f f f f f f f ",
"y y y y y y y a #.8 i g y y g g y y f t 5 C i g f f f f f f f f ",
"y y y y y y y a #.8 i g y y g g y y f t 5 Z i g f f f f f f f f ",
"y y y y y y y a #.8 i g y y g g y y f t 5 Z i g f f f f f f f f ",
"y y y y y y y a #.8 i g y y g g y y f t 5 Z i g f f f f f f f f ",
"u u u u u u u e 4.3 s a t t i i t t t e , n s a i i i i i i i i ",
"S S S S S S S B x x M $.O.U ) [ &.[ [ >.v l 5.#./ _ _ / / / / / ",
"5 5 5 5 5 5 5 1 h o 3 + * * 5 - ; ; : 2 X j 4 + 5 5 5 5 5 5 5 5 ",
"0 0 0 0 0 0 0 e 6.  d a u u i i i i w e 7 -.q 0 w w w w 0 0 0 0 ",
"y y y y y y y 0 X.5 w t y y y y y y y 0 = W u y y y y y y y y y ",
"y y y y y y y t L + 0 y y f f f y y y t * L 0 y y y y y y y y y ",
"y y y y y y y t W # 0 y f f f f y y g i 5 U w f y y y y y y y y ",
"f f f f f f f t o.# 0 y f f f f y y g i 5 ! w f y g g g g g g g ",
"t t t t t t t e <.> e t t t t i 0 t i e < =.$ a i i i i i i i i ",
"5 5 5 5 5 5 5 , v X 9 6 * 5 5 5 5 6 5 < . k % + 5 5 5 5 5 5 5 5 ",
"C C C C C C C m z z | ~ U U J U ~ ~ X.B l l *.H U #.#.#.#.#.#.#.",
"u u u u u u u e 2.9 q t t 0 0 0 t t t q & -.q u t t t t t t t t ",
"f f f f f f f a ) # 0 f y y y y f f f u * W u y f f f f f f g f ",
"y y y y y y y i 3.8 r y y y y y y y y i * H 0 y y y y y y y y y ",
"y g g y y y y i 3.8 r y y p p p y y g i 5 H 0 y y y y y y y y y ",
"f f g f f f f i _ 8 r y y g g g y y f i 5 H t y y y y y y y y y ",
"t t t t t t t e >.4 e a i t t t i i i r , b q t w w w w w w w w ",
"5 5 5 5 5 5 5 , v X 9 = 5 5 5 5 5 5 5 2 O l > + 5 5 5 5 5 5 5 5 ",
"C C C C C C C m z j :.~ ~ X.J X.) ) X.B c l V J J X.X.X.J J X.X.",
"u u u u u u u e 2.9 r t t 0 w w t t i e ,  .@ w 0 0 t t 0 0 0 0 ",
"f f f f f f f a ) # 0 f f y y y y g g i # ~ a y y f f f f f f f ",
"y y y y y y y i 3.8 0 y y y y y y y p i 5 J 0 y y y y y y y y y ",
"y y y y g g y i 3.8 r y y y y y p p g i 5 J 0 y y y y y y y y y ",
"f f f f f f f i 3.8 0 y y f f y y p g i 5 K i y y y y y y y y y ",
"f f f f f f f t 3.5 0 y y f f f y g g p - S i f y y y y y y y y "
};
